<svg width="39" height="32" viewBox="0 0 39 32" fill="none" xmlns="http://www.w3.org/2000/svg">
<g clip-path="url(#clip0_625_1712)">
<path d="M34.6588 7.81061C34.6823 8.151 34.6824 8.49139 34.6824 8.83492C34.6824 19.3024 26.7137 31.3745 12.1427 31.3745V31.3683C7.83843 31.3745 3.62353 30.1416 0 27.8169C0.625882 27.8922 1.2549 27.9298 1.88549 27.9314C5.45255 27.9345 8.91765 26.7377 11.7239 24.5337C8.33412 24.4694 5.36157 22.2592 4.32314 19.0326C5.51059 19.2616 6.73412 19.2145 7.89961 18.8961C4.20392 18.1494 1.5451 14.9024 1.5451 11.1314C1.5451 11.0969 1.5451 11.0639 1.5451 11.031C2.64627 11.6443 3.87922 11.9847 5.14039 12.0224C1.65961 9.6961 0.586667 5.06551 2.68863 1.44512C6.71059 6.39414 12.6447 9.40277 19.0149 9.7212C18.3765 6.96982 19.2486 4.08669 21.3067 2.15257C24.4973 -0.846647 29.5153 -0.692922 32.5145 2.4961C34.2886 2.14629 35.989 1.49531 37.5451 0.572961C36.9537 2.40669 35.7161 3.96433 34.0627 4.95414C35.6329 4.76904 37.1671 4.34865 38.6118 3.70708C37.5482 5.3008 36.2086 6.68904 34.6588 7.81061Z" fill="#1D9BF0"/>
</g>
<defs>
<clipPath id="clip0_625_1712">
<rect width="38.902" height="32" fill="white"/>
</clipPath>
</defs>
</svg>
